REM DIRINDEX 1\2,1\3,1\4,1\5,1\6
REM DIRNAME folder01,folder02,folder03,folder04,folder05,folder06
TITLE ""
FILE "CD2-62.mp3" MP3
  TRACK 01 AUDIO
    TITLE "6:cjc091_2656"
    INDEX 01 00:00:00
  TRACK 02 AUDIO
    TITLE "0:"
    INDEX 01 00:01:34
  TRACK 03 AUDIO
    TITLE "6:cjc091_2657"
    INDEX 01 00:01:56
  TRACK 04 AUDIO
    TITLE "0:"
    INDEX 01 00:03:72
  TRACK 05 AUDIO
    TITLE "2:cjc091_2658"
    INDEX 01 00:05:20
  TRACK 06 AUDIO
    TITLE "0:"
    INDEX 01 00:06:43
  TRACK 07 AUDIO
    TITLE "3:cjc091_2659"
    INDEX 01 00:06:57
  TRACK 08 AUDIO
    TITLE "0:"
    INDEX 01 00:08:15
  TRACK 09 AUDIO
    TITLE "4:cjc091_2660"
    INDEX 01 00:08:36
  TRACK 10 AUDIO
    TITLE "0:"
    INDEX 01 00:11:17
  TRACK 11 AUDIO
    TITLE "2:cjc091_2661"
    INDEX 01 00:12:30
  TRACK 12 AUDIO
    TITLE "0:"
    INDEX 01 00:13:59
  TRACK 13 AUDIO
    TITLE "3:cjc091_2662"
    INDEX 01 00:14:06
  TRACK 14 AUDIO
    TITLE "0:"
    INDEX 01 00:16:00
  TRACK 15 AUDIO
    TITLE "4:cjc091_2663"
    INDEX 01 00:16:20
  TRACK 16 AUDIO
    TITLE "0:"
    INDEX 01 00:19:50
  TRACK 17 AUDIO
    TITLE "2:cjc091_2664"
    INDEX 01 00:20:67
  TRACK 18 AUDIO
    TITLE "0:"
    INDEX 01 00:22:58
  TRACK 19 AUDIO
    TITLE "3:cjc091_2665"
    INDEX 01 00:23:06
  TRACK 20 AUDIO
    TITLE "0:"
    INDEX 01 00:24:63
  TRACK 21 AUDIO
    TITLE "4:cjc091_2666"
    INDEX 01 00:25:11
  TRACK 22 AUDIO
    TITLE "0:"
    INDEX 01 00:28:41
  TRACK 23 AUDIO
    TITLE "2:cjc091_2667"
    INDEX 01 00:29:54
  TRACK 24 AUDIO
    TITLE "0:"
    INDEX 01 00:30:55
  TRACK 25 AUDIO
    TITLE "3:cjc091_2668"
    INDEX 01 00:31:02
  TRACK 26 AUDIO
    TITLE "0:"
    INDEX 01 00:31:67
  TRACK 27 AUDIO
    TITLE "4:cjc091_2669"
    INDEX 01 00:32:19
  TRACK 28 AUDIO
    TITLE "0:"
    INDEX 01 00:35:53
  TRACK 29 AUDIO
    TITLE "2:cjc091_2670"
    INDEX 01 00:36:70
  TRACK 30 AUDIO
    TITLE "0:"
    INDEX 01 00:39:09
  TRACK 31 AUDIO
    TITLE "3:cjc091_2671"
    INDEX 01 00:39:31
  TRACK 32 AUDIO
    TITLE "0:"
    INDEX 01 00:41:57
  TRACK 33 AUDIO
    TITLE "4:cjc091_2672"
    INDEX 01 00:42:04
  TRACK 34 AUDIO
    TITLE "0:"
    INDEX 01 00:48:38
  TRACK 35 AUDIO
    TITLE "2:cjc091_2673"
    INDEX 01 00:49:45
  TRACK 36 AUDIO
    TITLE "0:"
    INDEX 01 00:51:26
  TRACK 37 AUDIO
    TITLE "3:cjc091_2674"
    INDEX 01 00:51:40
  TRACK 38 AUDIO
    TITLE "0:"
    INDEX 01 00:52:43
  TRACK 39 AUDIO
    TITLE "4:cjc091_2675"
    INDEX 01 00:52:63
  TRACK 40 AUDIO
    TITLE "0:"
    INDEX 01 00:57:07
  TRACK 41 AUDIO
    TITLE "2:cjc091_2676"
    INDEX 01 00:58:22
  TRACK 42 AUDIO
    TITLE "0:"
    INDEX 01 00:59:38
  TRACK 43 AUDIO
    TITLE "3:cjc091_2677"
    INDEX 01 00:59:57
  TRACK 44 AUDIO
    TITLE "0:"
    INDEX 01 01:01:48
  TRACK 45 AUDIO
    TITLE "4:cjc091_2678"
    INDEX 01 01:01:70
  TRACK 46 AUDIO
    TITLE "0:"
    INDEX 01 01:04:64
  TRACK 47 AUDIO
    TITLE "2:cjc091_2679"
    INDEX 01 01:06:04
  TRACK 48 AUDIO
    TITLE "0:"
    INDEX 01 01:08:07
  TRACK 49 AUDIO
    TITLE "3:cjc091_2680"
    INDEX 01 01:08:23
  TRACK 50 AUDIO
    TITLE "0:"
    INDEX 01 01:10:30
  TRACK 51 AUDIO
    TITLE "4:cjc091_2681"
    INDEX 01 01:10:49
  TRACK 52 AUDIO
    TITLE "0:"
    INDEX 01 01:14:14
  TRACK 53 AUDIO
    TITLE "2:cjc091_2682"
    INDEX 01 01:15:29
  TRACK 54 AUDIO
    TITLE "0:"
    INDEX 01 01:16:28
  TRACK 55 AUDIO
    TITLE "3:cjc091_2683"
    INDEX 01 01:16:52
  TRACK 56 AUDIO
    TITLE "0:"
    INDEX 01 01:18:25
  TRACK 57 AUDIO
    TITLE "4:cjc091_2684"
    INDEX 01 01:18:49
  TRACK 58 AUDIO
    TITLE "0:"
    INDEX 01 01:21:49
  TRACK 59 AUDIO
    TITLE "2:cjc091_2685"
    INDEX 01 01:22:68
  TRACK 60 AUDIO
    TITLE "0:"
    INDEX 01 01:24:30
  TRACK 61 AUDIO
    TITLE "3:cjc091_2686"
    INDEX 01 01:24:47
  TRACK 62 AUDIO
    TITLE "0:"
    INDEX 01 01:25:68
  TRACK 63 AUDIO
    TITLE "4:cjc091_2687"
    INDEX 01 01:26:13
  TRACK 64 AUDIO
    TITLE "0:"
    INDEX 01 01:28:71
  TRACK 65 AUDIO
    TITLE "2:cjc091_2688"
    INDEX 01 01:30:07
  TRACK 66 AUDIO
    TITLE "0:"
    INDEX 01 01:31:43
  TRACK 67 AUDIO
    TITLE "3:cjc091_2689"
    INDEX 01 01:31:69
  TRACK 68 AUDIO
    TITLE "0:"
    INDEX 01 01:33:58
  TRACK 69 AUDIO
    TITLE "4:cjc091_2690"
    INDEX 01 01:34:06
  TRACK 70 AUDIO
    TITLE "0:"
    INDEX 01 01:37:46
  TRACK 71 AUDIO
    TITLE "2:cjc091_2691"
    INDEX 01 01:38:55
  TRACK 72 AUDIO
    TITLE "0:"
    INDEX 01 01:40:68
  TRACK 73 AUDIO
    TITLE "3:cjc091_2692"
    INDEX 01 01:41:05
  TRACK 74 AUDIO
    TITLE "0:"
    INDEX 01 01:42:39
  TRACK 75 AUDIO
    TITLE "4:cjc091_2693"
    INDEX 01 01:42:71
  TRACK 76 AUDIO
    TITLE "0:"
    INDEX 01 01:46:19
  TRACK 77 AUDIO
    TITLE "2:cjc091_2694"
    INDEX 01 01:47:33
  TRACK 78 AUDIO
    TITLE "0:"
    INDEX 01 01:48:46
  TRACK 79 AUDIO
    TITLE "3:cjc091_2695"
    INDEX 01 01:48:61
  TRACK 80 AUDIO
    TITLE "0:"
    INDEX 01 01:50:07
  TRACK 81 AUDIO
    TITLE "4:cjc091_2696"
    INDEX 01 01:50:21
  TRACK 82 AUDIO
    TITLE "0:"
    INDEX 01 01:53:33
  TRACK 83 AUDIO
    TITLE "2:cjc091_2697"
    INDEX 01 01:54:44
  TRACK 84 AUDIO
    TITLE "0:"
    INDEX 01 01:55:67
  TRACK 85 AUDIO
    TITLE "3:cjc091_2698"
    INDEX 01 01:56:16
  TRACK 86 AUDIO
    TITLE "0:"
    INDEX 01 01:58:01
  TRACK 87 AUDIO
    TITLE "4:cjc091_2699"
    INDEX 01 01:58:23
  TRACK 88 AUDIO
    TITLE "0:"
    INDEX 01 02:00:65
  TRACK 89 AUDIO
    TITLE "2:cjc091_2700"
    INDEX 01 02:02:03
  TRACK 90 AUDIO
    TITLE "0:"
    INDEX 01 02:04:31
  TRACK 91 AUDIO
    TITLE "3:cjc091_2701"
    INDEX 01 02:04:53
  TRACK 92 AUDIO
    TITLE "0:"
    INDEX 01 02:07:29
  TRACK 93 AUDIO
    TITLE "4:cjc091_2702"
    INDEX 01 02:07:49
  TRACK 94 AUDIO
    TITLE "0:"
    INDEX 01 02:12:09
